<svg width="20" height="20" viewBox="0 0 20 20" fill="none" xmlns="http://www.w3.org/2000/svg">
<path d="M10.8584 1.66699C11.7959 1.66949 12.2718 1.67449 12.6826 1.68616L12.8443 1.69199C13.0309 1.69866 13.2151 1.70699 13.4376 1.71699C14.3243 1.75866 14.9293 1.89866 15.4601 2.10449C16.0101 2.31616 16.4734 2.60283 16.9368 3.06533C17.3607 3.48177 17.6886 3.98572 17.8976 4.54199C18.1034 5.07283 18.2434 5.67782 18.2851 6.56533C18.2951 6.78699 18.3034 6.97116 18.3101 7.15866L18.3151 7.32033C18.3276 7.73033 18.3326 8.20616 18.3343 9.14366L18.3351 9.76533V10.857C18.3371 11.4648 18.3307 12.0727 18.3159 12.6803L18.3109 12.842C18.3043 13.0295 18.2959 13.2137 18.2859 13.4353C18.2443 14.3228 18.1026 14.927 17.8976 15.4587C17.6886 16.0149 17.3607 16.5189 16.9368 16.9353C16.5203 17.3592 16.0164 17.6871 15.4601 17.8962C14.9293 18.102 14.3243 18.242 13.4376 18.2837L12.8443 18.3087L12.6826 18.3137C12.2718 18.3253 11.7959 18.3312 10.8584 18.3328L10.2368 18.3337H9.14594C8.53783 18.3358 7.92971 18.3294 7.32178 18.3145L7.16011 18.3095C6.96228 18.302 6.7645 18.2934 6.56678 18.2837C5.68011 18.242 5.07511 18.102 4.54344 17.8962C3.98747 17.687 3.48381 17.3591 3.06761 16.9353C2.6434 16.519 2.3152 16.015 2.10594 15.4587C1.90011 14.9278 1.76011 14.3228 1.71844 13.4353L1.69344 12.842L1.68928 12.6803C1.67391 12.0727 1.66697 11.4648 1.66844 10.857V9.14366C1.66614 8.53583 1.67225 7.92799 1.68678 7.32033L1.69261 7.15866C1.69928 6.97116 1.70761 6.78699 1.71761 6.56533C1.75928 5.67782 1.89928 5.07366 2.10511 4.54199C2.31485 3.98549 2.64363 3.48152 3.06844 3.06533C3.4844 2.64162 3.98777 2.31372 4.54344 2.10449C5.07511 1.89866 5.67928 1.75866 6.56678 1.71699C6.78844 1.70699 6.97344 1.69866 7.16011 1.69199L7.32178 1.68699C7.92944 1.67219 8.53727 1.6658 9.14511 1.66783L10.8584 1.66699ZM10.0018 5.83366C8.89671 5.83366 7.8369 6.27265 7.0555 7.05405C6.2741 7.83545 5.83511 8.89526 5.83511 10.0003C5.83511 11.1054 6.2741 12.1652 7.0555 12.9466C7.8369 13.728 8.89671 14.167 10.0018 14.167C11.1068 14.167 12.1667 13.728 12.9481 12.9466C13.7295 12.1652 14.1684 11.1054 14.1684 10.0003C14.1684 8.89526 13.7295 7.83545 12.9481 7.05405C12.1667 6.27265 11.1068 5.83366 10.0018 5.83366ZM10.0018 7.50033C10.3301 7.50027 10.6552 7.56488 10.9585 7.69047C11.2619 7.81605 11.5375 8.00016 11.7697 8.23226C12.0018 8.46437 12.186 8.73994 12.3117 9.04323C12.4374 9.34653 12.5021 9.6716 12.5022 9.99991C12.5022 10.3282 12.4376 10.6533 12.3121 10.9566C12.1865 11.26 12.0024 11.5356 11.7703 11.7678C11.5381 12 11.2626 12.1842 10.9593 12.3099C10.656 12.4356 10.3309 12.5003 10.0026 12.5003C9.33957 12.5003 8.70368 12.2369 8.23484 11.7681C7.766 11.2993 7.50261 10.6634 7.50261 10.0003C7.50261 9.33728 7.766 8.7014 8.23484 8.23256C8.70368 7.76372 9.33957 7.50033 10.0026 7.50033M14.3776 4.58366C14.1013 4.58366 13.8364 4.69341 13.641 4.88876C13.4457 5.08411 13.3359 5.34906 13.3359 5.62533C13.3359 5.90159 13.4457 6.16654 13.641 6.3619C13.8364 6.55725 14.1013 6.66699 14.3776 6.66699C14.6539 6.66699 14.9188 6.55725 15.1142 6.3619C15.3095 6.16654 15.4193 5.90159 15.4193 5.62533C15.4193 5.34906 15.3095 5.08411 15.1142 4.88876C14.9188 4.69341 14.6539 4.58366 14.3776 4.58366Z" fill="#192890"/>
</svg>
