<svg width="20" height="20" viewBox="0 0 20 20" fill="none" xmlns="http://www.w3.org/2000/svg">
<path d="M3.33203 7.22092H6.10981V16.6654H3.33203V7.22092ZM4.71259 6.10981H4.69703C3.86814 6.10981 3.33203 5.49203 3.33203 4.72036C3.33203 3.93203 3.88481 3.33203 4.7287 3.33203C5.5737 3.33203 6.09425 3.93203 6.10981 4.72036C6.10981 5.49148 5.5737 6.10981 4.71259 6.10981ZM16.6654 16.6654H13.8876V11.6104C13.8876 10.3893 13.207 9.55592 12.1143 9.55592C11.2804 9.55592 10.8293 10.1181 10.6104 10.6615C10.5304 10.8559 10.5543 11.3937 10.5543 11.6654V16.6654H7.77648V7.22092H10.5543V8.67425C10.9548 8.05425 11.582 7.22092 13.1865 7.22092C15.1743 7.22092 16.6648 8.47092 16.6648 11.262L16.6654 16.6654Z" fill="#192890"/>
</svg>
