<svg width="20" height="20" viewBox="0 0 20 20" fill="none" xmlns="http://www.w3.org/2000/svg">
<path d="M18.0299 3.35854C17.3507 3.67938 16.1949 4.28104 15.6141 4.39604C15.5916 4.40188 15.5732 4.40938 15.5516 4.41521C14.8741 3.74688 13.9457 3.33271 12.9182 3.33271C10.8474 3.33271 9.16824 5.01188 9.16824 7.08271C9.16824 7.19188 9.15907 7.39271 9.16824 7.49938C6.48657 7.49938 4.52824 6.10021 3.06241 4.30188C2.86657 4.06021 2.65824 4.18604 2.61491 4.35771C2.51741 4.74604 2.48407 5.39521 2.48407 5.85854C2.48407 7.02604 3.39657 8.17271 4.81741 8.88354C4.55574 8.95104 4.26741 8.99938 3.96741 8.99938C3.61407 8.99938 3.20741 8.90688 2.85157 8.72021C2.71991 8.65104 2.43574 8.67021 2.51991 9.00688C2.85741 10.356 4.39741 11.3035 5.77324 11.5794C5.46074 11.7635 4.79407 11.726 4.48741 11.726C4.37407 11.726 3.97991 11.6994 3.72491 11.6677C3.49241 11.6394 3.13491 11.6994 3.43407 12.1527C4.07657 13.1252 5.52991 13.736 6.78074 13.7594C5.62907 14.6627 3.74574 14.9927 1.94157 14.9927C1.57657 14.9844 1.59491 15.4002 1.88907 15.5544C3.21991 16.2527 5.39991 16.666 6.95741 16.666C13.1491 16.666 16.6682 11.9469 16.6682 7.49854C16.6682 7.42688 16.6666 7.27688 16.6641 7.12604C16.6641 7.11104 16.6682 7.09688 16.6682 7.08188C16.6682 7.05938 16.6616 7.03771 16.6616 7.01521C16.6591 6.90188 16.6566 6.79604 16.6541 6.74104C17.1449 6.38688 17.8966 5.77188 18.2766 5.30104C18.4057 5.14104 18.3016 4.94688 18.1257 5.00771C17.6732 5.16521 16.8907 5.47021 16.4007 5.52854C17.3816 4.87938 17.8666 4.31438 18.2832 3.68688C18.4257 3.47271 18.2474 3.25521 18.0299 3.35854Z" fill="#192890"/>
</svg>
