<svg width="14" height="14" viewBox="0 0 14 14" fill="none" xmlns="http://www.w3.org/2000/svg">
<path d="M7.58398 0.584265C7.58398 0.429555 7.64543 0.281182 7.75483 0.171786C7.86423 0.0623897 8.0126 0.000931565 8.16731 0.000931565C9.71389 0.00263 11.1966 0.617757 12.2902 1.71135C13.3838 2.80495 13.9989 4.28769 14.0006 5.83427C14.0006 5.98898 13.9392 6.13735 13.8298 6.24674C13.7204 6.35614 13.572 6.4176 13.4173 6.4176C13.2626 6.4176 13.1142 6.35614 13.0048 6.24674C12.8954 6.13735 12.834 5.98898 12.834 5.83427C12.8326 4.59701 12.3405 3.41084 11.4656 2.53597C10.5907 1.6611 9.40456 1.16899 8.16731 1.1676C8.0126 1.1676 7.86423 1.10614 7.75483 0.996744C7.64543 0.887348 7.58398 0.738975 7.58398 0.584265ZM8.16731 3.50093C8.78615 3.50093 9.37964 3.74676 9.81722 4.18435C10.2548 4.62193 10.5006 5.21543 10.5006 5.83427C10.5006 5.98898 10.5621 6.13735 10.6715 6.24674C10.7809 6.35614 10.9293 6.4176 11.084 6.4176C11.2387 6.4176 11.3871 6.35614 11.4965 6.24674C11.6059 6.13735 11.6673 5.98898 11.6673 5.83427C11.6664 4.90629 11.2973 4.01659 10.6412 3.36041C9.98498 2.70424 9.09528 2.33519 8.16731 2.33426C8.0126 2.33426 7.86423 2.39572 7.75483 2.50512C7.64543 2.61452 7.58398 2.76289 7.58398 2.9176C7.58398 3.07231 7.64543 3.22068 7.75483 3.33008C7.86423 3.43947 8.0126 3.50093 8.16731 3.50093ZM13.4716 9.76535C13.8096 10.1043 13.9994 10.5635 13.9994 11.0423C13.9994 11.521 13.8096 11.9802 13.4716 12.3192L12.9407 12.9311C8.16323 17.505 -3.46261 5.8821 1.04073 1.08943L1.71156 0.506098C2.05092 0.177493 2.50602 -0.00428981 2.97839 7.68889e-05C3.45075 0.00444358 3.90241 0.194609 4.23564 0.529432C4.25373 0.547515 5.33464 1.9516 5.33464 1.9516C5.65538 2.28855 5.83392 2.73614 5.83316 3.20133C5.8324 3.66653 5.65239 4.11353 5.33056 4.44943L4.65506 5.29877C5.02889 6.20708 5.57851 7.03258 6.27236 7.72782C6.9662 8.42307 7.79058 8.97436 8.69814 9.35002L9.55273 8.67043C9.88867 8.34885 10.3356 8.16905 10.8006 8.1684C11.2657 8.16775 11.7131 8.34629 12.05 8.66693C12.05 8.66693 13.4535 9.74727 13.4716 9.76535ZM12.6689 10.6135C12.6689 10.6135 11.273 9.5396 11.2549 9.52151C11.1347 9.40236 10.9723 9.3355 10.8031 9.3355C10.6339 9.3355 10.4715 9.40236 10.3513 9.52151C10.3356 9.53785 9.15898 10.4753 9.15898 10.4753C9.07969 10.5384 8.98533 10.5797 8.88519 10.5953C8.78505 10.6108 8.68258 10.6 8.58789 10.5639C7.41216 10.1262 6.34424 9.44086 5.45646 8.55439C4.56869 7.66793 3.88179 6.60102 3.44231 5.42593C3.40334 5.32995 3.39064 5.22532 3.4055 5.1228C3.42037 5.02028 3.46227 4.92356 3.52689 4.8426C3.52689 4.8426 4.46431 3.66543 4.48006 3.65027C4.59922 3.53009 4.66607 3.36771 4.66607 3.19847C4.66607 3.02924 4.59922 2.86686 4.48006 2.74668C4.46198 2.72918 3.38806 1.3321 3.38806 1.3321C3.26608 1.22273 3.10689 1.16415 2.94312 1.16838C2.77935 1.17261 2.62339 1.23933 2.50723 1.35485L1.83639 1.93818C-1.45477 5.89552 8.61998 15.4114 12.0879 12.1343L12.6193 11.5218C12.7438 11.4064 12.8186 11.2472 12.8279 11.0777C12.8371 10.9082 12.7801 10.7417 12.6689 10.6135Z" fill="black"/>
</svg>
