<svg width="14" height="14" viewBox="0 0 14 14" fill="none" xmlns="http://www.w3.org/2000/svg">
<path d="M7.00061 0C5.14471 0.0020073 3.3654 0.74015 2.05308 2.05247C0.74076 3.36479 0.00261746 5.1441 0.000610165 7C-0.0728898 12.5842 6.51003 16.0002 11.0256 12.7266C11.0905 12.6834 11.1461 12.6277 11.1891 12.5627C11.2321 12.4977 11.2616 12.4247 11.2759 12.3481C11.2903 12.2715 11.2891 12.1928 11.2725 12.1167C11.2559 12.0405 11.2242 11.9685 11.1793 11.9048C11.1344 11.8411 11.0772 11.787 11.011 11.7458C10.9449 11.7046 10.8711 11.677 10.7942 11.6648C10.7172 11.6526 10.6386 11.6559 10.5629 11.6745C10.4872 11.6932 10.4161 11.7268 10.3536 11.7734C6.59228 14.4993 1.10894 11.6538 1.16728 7C1.48753 -0.7385 12.5149 -0.73675 12.8339 7V8.16667C12.8339 8.47609 12.711 8.77283 12.4922 8.99162C12.2734 9.21042 11.9767 9.33333 11.6673 9.33333C11.3579 9.33333 11.0611 9.21042 10.8423 8.99162C10.6235 8.77283 10.5006 8.47609 10.5006 8.16667V7C10.3536 2.37475 3.64703 2.37533 3.50061 7C3.5074 7.70933 3.72896 8.39996 4.13608 8.98086C4.54321 9.56176 5.11679 10.0057 5.78124 10.2541C6.44569 10.5025 7.16981 10.5437 7.85817 10.3724C8.54653 10.2011 9.16681 9.82516 9.63728 9.29425C9.89033 9.74086 10.2836 10.0916 10.7562 10.292C11.2287 10.4925 11.7542 10.5315 12.2512 10.4031C12.7482 10.2747 13.189 9.98593 13.5052 9.58161C13.8215 9.17729 13.9956 8.67997 14.0006 8.16667V7C13.9986 5.1441 13.2605 3.36479 11.9481 2.05247C10.6358 0.74015 8.85651 0.0020073 7.00061 0V0ZM7.00061 9.33333C6.38177 9.33333 5.78828 9.0875 5.35069 8.64992C4.91311 8.21233 4.66728 7.61884 4.66728 7C4.66728 6.38116 4.91311 5.78767 5.35069 5.35008C5.78828 4.9125 6.38177 4.66667 7.00061 4.66667C7.61945 4.66667 8.21294 4.9125 8.65053 5.35008C9.08811 5.78767 9.33394 6.38116 9.33394 7C9.33394 7.61884 9.08811 8.21233 8.65053 8.64992C8.21294 9.0875 7.61945 9.33333 7.00061 9.33333Z" fill="black"/>
</svg>
